<mxfile host="app.diagrams.net" modified="2022-12-12T01:40:27.733Z" agent="5.0 (Macintosh; Intel Mac OS X 10_15_7) AppleWebKit/605.1.15 (KHTML, like Gecko) Version/15.6.1 Safari/605.1.15" version="20.6.2" etag="l5g9a8KlY1NJbqJNx9Ek" type="github">
  <diagram id="Ge0Znut5vhqXlu_OEDBJ" name="第 1 页">
    <mxGraphModel dx="788" dy="561" grid="1" gridSize="10" guides="1" tooltips="1" connect="1" arrows="1" fold="1" page="1" pageScale="1" pageWidth="827" pageHeight="1169" math="0" shadow="0">
      <root>
        <mxCell id="0" />
        <mxCell id="1" parent="0" />
        <mxCell id="bK5sYvctPTg1IpfjSqv3-19" value="" style="rounded=0;whiteSpace=wrap;html=1;fillColor=none;" vertex="1" parent="1">
          <mxGeometry x="400" y="150" width="300" height="160" as="geometry" />
        </mxCell>
        <mxCell id="bK5sYvctPTg1IpfjSqv3-21" style="edgeStyle=orthogonalEdgeStyle;rounded=0;orthogonalLoop=1;jettySize=auto;html=1;exitX=0.5;exitY=0;exitDx=0;exitDy=0;entryX=0.5;entryY=1;entryDx=0;entryDy=0;" edge="1" parent="1" source="bK5sYvctPTg1IpfjSqv3-7" target="bK5sYvctPTg1IpfjSqv3-8">
          <mxGeometry relative="1" as="geometry" />
        </mxCell>
        <mxCell id="bK5sYvctPTg1IpfjSqv3-1" value="" style="endArrow=classic;html=1;rounded=0;" edge="1" parent="1">
          <mxGeometry relative="1" as="geometry">
            <mxPoint x="120" y="290" as="sourcePoint" />
            <mxPoint x="790" y="290" as="targetPoint" />
          </mxGeometry>
        </mxCell>
        <mxCell id="bK5sYvctPTg1IpfjSqv3-2" value="时间线" style="edgeLabel;resizable=0;html=1;align=center;verticalAlign=middle;fontStyle=1;fontColor=#FF8000;" connectable="0" vertex="1" parent="bK5sYvctPTg1IpfjSqv3-1">
          <mxGeometry relative="1" as="geometry">
            <mxPoint x="-160" as="offset" />
          </mxGeometry>
        </mxCell>
        <mxCell id="bK5sYvctPTg1IpfjSqv3-3" value="请求" style="edgeLabel;resizable=0;html=1;align=left;verticalAlign=bottom;fontStyle=1;fontSize=13;" connectable="0" vertex="1" parent="bK5sYvctPTg1IpfjSqv3-1">
          <mxGeometry x="-1" relative="1" as="geometry" />
        </mxCell>
        <mxCell id="bK5sYvctPTg1IpfjSqv3-4" value="响应" style="edgeLabel;resizable=0;html=1;align=right;verticalAlign=bottom;fontSize=13;fontStyle=1" connectable="0" vertex="1" parent="bK5sYvctPTg1IpfjSqv3-1">
          <mxGeometry x="1" relative="1" as="geometry" />
        </mxCell>
        <mxCell id="bK5sYvctPTg1IpfjSqv3-5" value="&lt;span style=&quot;text-align: start;&quot; data-type=&quot;code&quot;&gt;RequestReceived&lt;/span&gt;&lt;span style=&quot;font-family: -webkit-standard; font-size: medium; text-align: start;&quot;&gt;​&lt;/span&gt;" style="rounded=1;whiteSpace=wrap;html=1;fillColor=#1ba1e2;fontColor=#ffffff;strokeColor=#006EAF;" vertex="1" parent="1">
          <mxGeometry x="190" y="200" width="120" height="40" as="geometry" />
        </mxCell>
        <mxCell id="bK5sYvctPTg1IpfjSqv3-20" style="edgeStyle=orthogonalEdgeStyle;rounded=0;orthogonalLoop=1;jettySize=auto;html=1;exitX=0.5;exitY=0;exitDx=0;exitDy=0;" edge="1" parent="1" source="bK5sYvctPTg1IpfjSqv3-6" target="bK5sYvctPTg1IpfjSqv3-19">
          <mxGeometry relative="1" as="geometry" />
        </mxCell>
        <mxCell id="bK5sYvctPTg1IpfjSqv3-22" value="产生异常时" style="edgeLabel;html=1;align=center;verticalAlign=middle;resizable=0;points=[];fontStyle=1;fontColor=#FF0080;" vertex="1" connectable="0" parent="bK5sYvctPTg1IpfjSqv3-20">
          <mxGeometry x="0.2005" relative="1" as="geometry">
            <mxPoint x="21" as="offset" />
          </mxGeometry>
        </mxCell>
        <mxCell id="bK5sYvctPTg1IpfjSqv3-6" value="&lt;span style=&quot;text-align: start;&quot; data-type=&quot;code&quot;&gt;ResponseStarted&lt;/span&gt;&lt;span style=&quot;font-family: -webkit-standard; font-size: medium; text-align: start;&quot;&gt;​&lt;/span&gt;" style="rounded=1;whiteSpace=wrap;html=1;fillColor=#60a917;fontColor=#ffffff;strokeColor=#2D7600;" vertex="1" parent="1">
          <mxGeometry x="414" y="200" width="116" height="40" as="geometry" />
        </mxCell>
        <mxCell id="bK5sYvctPTg1IpfjSqv3-7" value="&lt;span style=&quot;text-align: start;&quot; data-type=&quot;code&quot;&gt;ResponseComplete&lt;/span&gt;&lt;span style=&quot;font-family: -webkit-standard; font-size: medium; text-align: start;&quot;&gt;​&lt;/span&gt;" style="rounded=1;whiteSpace=wrap;html=1;fillColor=#008a00;fontColor=#ffffff;strokeColor=#005700;" vertex="1" parent="1">
          <mxGeometry x="560" y="200" width="120" height="40" as="geometry" />
        </mxCell>
        <mxCell id="bK5sYvctPTg1IpfjSqv3-8" value="&lt;span style=&quot;text-align: start;&quot; data-type=&quot;code&quot;&gt;Panic&lt;/span&gt;&lt;span style=&quot;font-family: -webkit-standard; font-size: medium; text-align: start;&quot;&gt;​&lt;/span&gt;" style="rounded=1;whiteSpace=wrap;html=1;fillColor=#a20025;fontColor=#ffffff;strokeColor=#6F0000;" vertex="1" parent="1">
          <mxGeometry x="490" y="130" width="120" height="30" as="geometry" />
        </mxCell>
        <mxCell id="bK5sYvctPTg1IpfjSqv3-17" value="" style="endArrow=none;dashed=1;html=1;rounded=0;" edge="1" parent="1">
          <mxGeometry width="50" height="50" relative="1" as="geometry">
            <mxPoint x="360" y="360" as="sourcePoint" />
            <mxPoint x="360" y="130" as="targetPoint" />
          </mxGeometry>
        </mxCell>
        <mxCell id="bK5sYvctPTg1IpfjSqv3-18" value="开始响应" style="edgeLabel;html=1;align=center;verticalAlign=middle;resizable=0;points=[];" vertex="1" connectable="0" parent="bK5sYvctPTg1IpfjSqv3-17">
          <mxGeometry x="0.405" y="3" relative="1" as="geometry">
            <mxPoint x="3" y="1" as="offset" />
          </mxGeometry>
        </mxCell>
        <mxCell id="bK5sYvctPTg1IpfjSqv3-23" value="" style="endArrow=classic;html=1;rounded=0;fontSize=13;fontColor=#FF8000;startArrow=none;" edge="1" parent="1">
          <mxGeometry relative="1" as="geometry">
            <mxPoint x="170" y="140" as="sourcePoint" />
            <mxPoint x="170" y="100" as="targetPoint" />
          </mxGeometry>
        </mxCell>
        <mxCell id="bK5sYvctPTg1IpfjSqv3-26" value="" style="endArrow=none;html=1;rounded=0;fontSize=13;fontColor=#FF8000;startArrow=none;" edge="1" parent="1" source="bK5sYvctPTg1IpfjSqv3-28">
          <mxGeometry relative="1" as="geometry">
            <mxPoint x="170" y="380.0000000000001" as="sourcePoint" />
            <mxPoint x="170" y="160" as="targetPoint" />
          </mxGeometry>
        </mxCell>
        <mxCell id="bK5sYvctPTg1IpfjSqv3-28" value="2" style="ellipse;whiteSpace=wrap;html=1;aspect=fixed;strokeWidth=2;fontFamily=Tahoma;spacingBottom=4;spacingRight=2;strokeColor=#ae4132;fontSize=13;fillColor=#fad9d5;" vertex="1" parent="1">
          <mxGeometry x="160" y="180" width="20" height="20" as="geometry" />
        </mxCell>
        <mxCell id="bK5sYvctPTg1IpfjSqv3-29" value="" style="endArrow=none;html=1;rounded=0;fontSize=13;fontColor=#FF8000;startArrow=none;" edge="1" parent="1" source="bK5sYvctPTg1IpfjSqv3-31" target="bK5sYvctPTg1IpfjSqv3-28">
          <mxGeometry relative="1" as="geometry">
            <mxPoint x="170" y="380.0000000000001" as="sourcePoint" />
            <mxPoint x="170" y="160" as="targetPoint" />
          </mxGeometry>
        </mxCell>
        <mxCell id="bK5sYvctPTg1IpfjSqv3-31" value="3" style="ellipse;whiteSpace=wrap;html=1;aspect=fixed;strokeWidth=2;fontFamily=Tahoma;spacingBottom=4;spacingRight=2;strokeColor=#82b366;fontSize=13;fillColor=#d5e8d4;" vertex="1" parent="1">
          <mxGeometry x="160" y="240" width="20" height="20" as="geometry" />
        </mxCell>
        <mxCell id="bK5sYvctPTg1IpfjSqv3-32" value="" style="endArrow=none;html=1;rounded=0;fontSize=13;fontColor=#FF8000;startArrow=none;" edge="1" parent="1" source="bK5sYvctPTg1IpfjSqv3-34" target="bK5sYvctPTg1IpfjSqv3-31">
          <mxGeometry relative="1" as="geometry">
            <mxPoint x="170" y="380.0000000000001" as="sourcePoint" />
            <mxPoint x="170" y="200" as="targetPoint" />
          </mxGeometry>
        </mxCell>
        <mxCell id="bK5sYvctPTg1IpfjSqv3-34" value="4" style="ellipse;whiteSpace=wrap;html=1;aspect=fixed;strokeWidth=2;fontFamily=Tahoma;spacingBottom=4;spacingRight=2;strokeColor=#006EAF;fontSize=13;fontColor=#ffffff;fillColor=#1ba1e2;" vertex="1" parent="1">
          <mxGeometry x="160" y="340" width="20" height="20" as="geometry" />
        </mxCell>
        <mxCell id="bK5sYvctPTg1IpfjSqv3-35" value="" style="endArrow=none;html=1;rounded=0;fontSize=13;fontColor=#FF8000;" edge="1" parent="1" target="bK5sYvctPTg1IpfjSqv3-34">
          <mxGeometry relative="1" as="geometry">
            <mxPoint x="170" y="380.0000000000001" as="sourcePoint" />
            <mxPoint x="170" y="240" as="targetPoint" />
          </mxGeometry>
        </mxCell>
        <mxCell id="bK5sYvctPTg1IpfjSqv3-37" value="1" style="ellipse;whiteSpace=wrap;html=1;aspect=fixed;strokeWidth=2;fontFamily=Tahoma;spacingBottom=4;spacingRight=2;strokeColor=#10739e;fontSize=13;fillColor=#b1ddf0;" vertex="1" parent="1">
          <mxGeometry x="160" y="140" width="20" height="20" as="geometry" />
        </mxCell>
      </root>
    </mxGraphModel>
  </diagram>
</mxfile>
